<svg width="148" height="33" viewBox="0 0 148 33" fill="none" xmlns="http://www.w3.org/2000/svg">
<g clip-path="url(#clip0_19_2722)">
<path d="M3.27539 8.06366H23.5938L29.2176 17.888C29.2176 17.888 24.2413 27.2808 16.144 32.4999C16.085 32.5293 9.34173 27.9829 5.68981 22.9091C5.74882 22.8798 10.0482 22.9091 10.0482 22.9091C10.0482 22.9091 15.2311 28.071 16.144 28.1592C16.1518 28.1499 23.215 22.255 25.1341 17.888C25.1775 17.8926 21.7585 11.8663 21.7585 11.8663L3.27694 11.7781V8.06366H3.27539Z" fill="white"/>
<path fill-rule="evenodd" clip-rule="evenodd" d="M31.9626 0.5C32.2623 8.8011 30.6553 13.881 30.6553 13.881L28.0763 9.40574L28.3371 4.21292C28.3371 4.21292 3.71001 4.15724 3.67275 4.21292C3.67275 12.1955 5.76577 16.0723 5.76577 16.0723H12.3337C13.0326 14.6588 14.4928 13.6886 16.1764 13.6886C18.5368 13.6886 20.458 15.5956 20.458 17.9575C20.458 20.3194 18.5368 22.2263 16.1764 22.2263C14.5687 22.2263 13.1647 21.3416 12.4328 20.0311H3.67275C-0.13909 14.8568 0.000652094 0.5 0.000652094 0.5C0.000652094 0.5 31.9626 0.537114 31.9626 0.5ZM14.1448 17.9575C14.1448 16.8468 15.0501 15.9386 16.1764 15.9386C17.3027 15.9386 18.208 16.8468 18.208 17.9575C18.208 19.0681 17.3027 19.9763 16.1764 19.9763C15.0501 19.9763 14.1448 19.0681 14.1448 17.9575Z" fill="white"/>
<path d="M45.7817 4.58319C47.4542 4.58319 48.6759 4.98266 49.4484 5.78117C50.2209 6.58014 50.6069 8.00726 50.6069 10.0625C50.6069 12.1178 50.1609 13.5385 49.2693 14.3229C48.3771 15.1078 46.8404 15.5 44.6587 15.5C43.9739 15.5 42.7234 15.4303 40.9078 15.2918L40 15.2084V0.666687H43.2014V5.14574C44.2204 4.77085 45.0802 4.58319 45.7817 4.58319ZM44.6587 12.9997C45.7253 12.9997 46.4424 12.7742 46.8086 12.3228C47.1747 11.8714 47.3581 11.0624 47.3581 9.89581C47.3581 8.02093 46.689 7.08348 45.3513 7.08348C44.714 7.08348 44.1092 7.15318 43.5356 7.29166L43.2014 7.35406V12.9168C43.9337 12.9723 44.42 13.0001 44.6587 13.0001V12.9997Z" fill="white"/>
<path d="M52.9961 3.49998V0.666687H56.1975V3.49998H52.9961ZM52.9961 15.2499V4.83326H56.1975V15.2499H52.9961Z" fill="white"/>
<path d="M65.7763 7.20828H62.8377V11.4792C62.8377 11.896 62.8497 12.1911 62.8737 12.3647C62.8977 12.5387 62.985 12.6876 63.1364 12.8124C63.2874 12.9373 63.5224 13.0001 63.841 13.0001L65.6567 12.9582L65.7998 15.1875C64.7327 15.3956 63.9204 15.5 63.3631 15.5C61.9298 15.5 60.9505 15.2189 60.4245 14.6564C59.899 14.0938 59.6363 13.0557 59.6363 11.5416V7.20828H58.2271V4.83325H59.6363V1.93756H62.8377V4.83325H65.7763V7.20828Z" fill="white"/>
<path d="M76.4311 7.43741C74.4562 7.21558 73.0746 7.10397 72.2864 7.10397C71.4982 7.10397 70.9884 7.16638 70.7576 7.29165C70.5267 7.41646 70.4112 7.61461 70.4112 7.88564C70.4112 8.15667 70.5664 8.34387 70.8772 8.44819C71.188 8.5525 71.984 8.70555 73.2663 8.90643C74.5481 9.10777 75.4601 9.43756 76.0017 9.8958C76.5429 10.354 76.814 11.0974 76.814 12.1251C76.814 14.3748 75.2135 15.5 72.0122 15.5C70.9613 15.5 69.6868 15.3752 68.1898 15.1251L67.4251 15.0003L67.5207 12.6671C69.4951 12.8894 70.8688 13.0006 71.6413 13.0006C72.4139 13.0006 72.9393 12.935 73.2182 12.8024C73.4967 12.6708 73.6361 12.4726 73.6361 12.2089C73.6361 11.9452 73.4888 11.7506 73.1942 11.6254C72.8991 11.5006 72.1349 11.3475 70.9007 11.1671C69.6664 10.9868 68.7466 10.6811 68.1412 10.2506C67.5358 9.82019 67.2334 9.05265 67.2334 7.94849C67.2334 6.84433 67.6633 6.01121 68.5236 5.44865C69.3833 4.88609 70.4901 4.60504 71.844 4.60504C72.7837 4.60504 74.0655 4.73714 75.6904 5.00088L76.4786 5.12569L76.4306 7.43832L76.4311 7.43741Z" fill="white"/>
<path d="M85.0306 15.4791C82.6414 15.4791 81.0206 14.9028 80.1693 13.7499C79.3173 12.5975 78.8911 10.7017 78.8911 8.06242C78.8911 5.42318 79.321 3.54511 80.1813 2.42683C81.0415 1.30901 82.6576 0.749634 85.0306 0.749634C86.4477 0.749634 88.0084 0.923636 89.7127 1.27028L89.6172 3.14517C88.1839 2.92334 86.7506 2.81174 85.3173 2.81174C83.8841 2.81174 82.9125 3.18343 82.4027 3.92637C81.8929 4.66931 81.638 6.06545 81.638 8.11389C81.638 10.1623 81.8846 11.5585 82.3787 12.3014C82.8723 13.0448 83.836 13.416 85.2693 13.416C86.7026 13.416 88.1515 13.3117 89.6172 13.1036L89.6887 15.0204C88.0481 15.3256 86.4952 15.4786 85.0301 15.4786L85.0306 15.4791Z" fill="white"/>
<path d="M92.2217 15.2499V4.83331H94.802V6.08323C96.1553 5.31934 97.5092 4.82648 98.8631 4.60419V6.87491C97.493 7.11132 96.3225 7.41651 95.3515 7.7914L94.826 7.97907V15.2499H92.2222H92.2217Z" fill="white"/>
<path d="M108.084 4.83331H110.664V15.2499H108.084V14.604C106.921 15.1875 105.846 15.4791 104.859 15.4791C103.218 15.4791 102.119 15.0937 101.562 14.323C101.004 13.5523 100.726 12.2017 100.726 10.2707V4.83331H103.329V10.2917C103.329 11.5416 103.449 12.382 103.688 12.8125C103.926 13.243 104.484 13.4584 105.36 13.4584C106.236 13.4584 107.008 13.3199 107.725 13.0416L108.083 12.9168V4.83331H108.084Z" fill="white"/>
<path d="M116.421 15.2499H113.817V4.83331H116.397V5.47922C117.559 4.89571 118.658 4.60419 119.694 4.60419C121.287 4.60419 122.374 4.99683 122.955 5.78122C123.536 6.56607 123.827 7.86109 123.827 9.66674V15.2499H121.247V9.72915C121.247 8.60403 121.108 7.80552 120.829 7.33315C120.55 6.86124 119.981 6.62483 119.121 6.62483C118.309 6.62483 117.529 6.76377 116.78 7.04163L116.422 7.16644V15.2499H116.421Z" fill="white"/>
<path d="M131.328 4.60415C132.172 4.60415 133.168 4.70163 134.314 4.89568L134.911 4.99999L134.816 6.79152C133.557 6.68038 132.625 6.6248 132.021 6.6248C130.81 6.6248 129.998 6.86121 129.584 7.33312C129.17 7.80549 128.963 8.69465 128.963 9.99969C128.963 11.3047 129.162 12.208 129.56 12.7082C129.958 13.2083 130.786 13.4579 132.045 13.4579L134.84 13.2912L134.911 15.1037C133.302 15.3538 132.092 15.4786 131.28 15.4786C129.464 15.4786 128.186 15.0513 127.445 14.1972C126.705 13.3431 126.334 11.9438 126.334 9.99923C126.334 8.05465 126.725 6.66944 127.505 5.84314C128.285 5.01685 129.559 4.6037 131.327 4.6037L131.328 4.60415Z" fill="white"/>
<path d="M140.023 15.2499H137.419V0.5H140.023V5.37489C141.202 4.86107 142.293 4.60416 143.296 4.60416C144.889 4.60416 145.976 4.99681 146.557 5.7812C147.138 6.56605 147.429 7.86107 147.429 9.66671V15.2499H144.825V9.72913C144.825 8.60401 144.69 7.8055 144.419 7.33313C144.148 6.86122 143.574 6.62481 142.699 6.62481C141.934 6.62481 141.17 6.73595 140.405 6.95824L140.023 7.08305V15.2499H140.023Z" fill="white"/>
<path d="M138.672 32.2741V22.9631H140.654L145.882 29.7335V22.9631H147.252V32.2741H146.134L140.042 24.3332V32.2741H138.672Z" fill="white"/>
<path d="M130.378 32.5C127.412 32.5 125.323 30.4383 125.323 27.6184C125.323 24.8118 127.398 22.7368 130.378 22.7368C133.357 22.7368 135.472 24.7985 135.472 27.6184C135.472 30.4516 133.371 32.5 130.378 32.5ZM126.919 27.6184C126.919 29.7998 128.263 31.263 130.391 31.263C132.519 31.263 133.863 29.7998 133.863 27.6184C133.863 25.437 132.506 23.9738 130.391 23.9738C128.263 23.9738 126.919 25.4503 126.919 27.6184Z" fill="white"/>
<path d="M120.628 32.2741V22.9631H122.118V32.2741H120.628Z" fill="white"/>
<path d="M112.63 32.2741V24.1869H108.866V22.9631H117.871V24.1869H114.106V32.2741H112.63Z" fill="white"/>
<path d="M98.5176 32.2741L102.854 22.9631H104.33L108.627 32.2741H107.004L105.86 29.6936H101.244L100.074 32.2741H98.5176ZM101.75 28.5763H105.368L103.572 24.3864L101.75 28.5763Z" fill="white"/>
<path d="M87.5723 32.2741V22.9631H91.7489C94.8614 22.9631 96.7502 24.7588 96.7502 27.5654C96.7502 30.4119 94.8614 32.2741 91.7223 32.2741H87.5723ZM89.062 31.0637H91.5893C93.9037 31.0637 95.1407 29.7601 95.1407 27.5521C95.1407 25.3707 93.8638 24.1736 91.6824 24.1736H89.062V31.0637Z" fill="white"/>
<path d="M75.1855 32.2741V22.9631H77.1674L82.3949 29.7335V22.9631H83.7649V32.2741H82.6476L76.5556 24.3332V32.2741H75.1855Z" fill="white"/>
<path d="M67.2866 32.5002C64.8524 32.5002 63.0435 31.1435 63.0435 28.7625V22.9631H64.5199V28.6029C64.5199 30.3853 65.6771 31.2499 67.2866 31.2499C68.8827 31.2499 70.0267 30.3853 70.0267 28.6029V22.9631H71.4898V28.7492C71.4898 31.1036 69.7074 32.5002 67.2866 32.5002Z" fill="white"/>
<path d="M54.8553 32.5C51.8891 32.5 49.8008 30.4383 49.8008 27.6184C49.8008 24.8118 51.8758 22.7368 54.8553 22.7368C57.8348 22.7368 59.9497 24.7985 59.9497 27.6184C59.9497 30.4516 57.8481 32.5 54.8553 32.5ZM51.3969 27.6184C51.3969 29.7998 52.7404 31.263 54.8686 31.263C56.9968 31.263 58.3402 29.7998 58.3402 27.6184C58.3402 25.437 56.9835 23.9738 54.8686 23.9738C52.7404 23.9738 51.3969 25.4503 51.3969 27.6184Z" fill="white"/>
<path d="M40 32.2741V22.9631H47.9941V24.1603H41.4898V26.6742H46.1585V27.8447H41.4898V32.2741H40Z" fill="white"/>
</g>
<defs>
<clipPath id="clip0_19_2722">
<rect width="147.428" height="32" fill="white" transform="translate(0 0.5)"/>
</clipPath>
</defs>
</svg>
